<svg xmlns="http://www.w3.org/2000/svg" width="354" height="48" viewBox="0 0 354 48"><g fill="none" fill-rule="evenodd"><rect width="354" height="48" fill="#14E1A7" rx="24"/><circle cx="330" cy="24" r="24" fill="#CF003D"/><g fill="#000" fill-rule="nonzero" transform="translate(18.496 6.728)"><path d="M4.896 19.736C6.88 19.736 8.992 19.736 10.976 19.736 13.184 19.736 14.336 20.792 14.336 22.36 14.336 23.928 13.28 24.92 11.04 24.92L4.896 24.92 4.896 19.736ZM4.896 11.192 11.04 11.192C12.928 11.192 13.888 12.152 13.888 13.464 13.888 14.776 12.928 15.576 10.976 15.576L4.896 15.576 4.896 11.192ZM0 6.872 0 29.272C3.648 29.272 7.616 29.272 11.232 29.272 15.712 29.272 18.72 27.64 19.392 24.024 19.872 21.432 18.688 18.552 15.84 17.528 17.984 16.536 18.816 14.808 18.816 12.952 18.816 8.792 15.296 6.872 11.04 6.872L0 6.872ZM46.376 18.072C46.376 10.776 41.448 6.328 34.28 6.328 27.112 6.328 22.184 10.776 22.184 18.072 22.184 25.368 27.112 29.816 34.28 29.816 41.448 29.816 46.376 25.368 46.376 18.072ZM41.48 18.072C41.48 22.232 38.632 25.304 34.28 25.304 30.024 25.304 27.08 22.264 27.08 18.072 27.08 14.008 30.024 10.808 34.28 10.808 38.632 10.808 41.48 13.976 41.48 18.072Z"/><polygon points="54.576 6.872 50.288 6.872 50.288 29.272 55.344 29.272 55.344 22.296 55.152 14.936 66.288 29.272 70.576 29.272 70.576 6.872 65.552 6.872 65.552 14.392 65.872 21.432"/><polygon points="80.728 29.272 80.728 6.872 75.768 6.872 75.768 29.272"/><path d="M90.784 29.272 95.744 29.272 95.744 11.32 102.56 11.32 102.56 6.872C96 6.872 90.496 6.872 83.968 6.872L83.968 11.32 90.784 11.32 90.784 29.272ZM121.32 29.272 126.728 29.272 116.68 6.872 111.24 6.872 101.192 29.272 106.568 29.272 108.2 25.432 119.688 25.432 121.32 29.272ZM117.8 21.016 110.088 21.016 113.96 11.928 117.8 21.016ZM107.208 2.52C107.208 5.848 112.296 5.848 112.296 2.52 112.296-.84 107.208-.84 107.208 2.52ZM115.528 2.52C115.528 5.848 120.616 5.848 120.616 2.52 120.616-.84 115.528-.84 115.528 2.52ZM132.176 29.272 137.136 29.272 137.136 11.32 143.952 11.32 143.952 6.872C137.392 6.872 131.888 6.872 125.36 6.872L125.36 11.32 132.176 11.32 132.176 29.272ZM163.576 9.528C161.272 6.84 158.68 6.072 155.224 6.072 150.616 6.072 146.392 8.44 146.36 12.888 146.296 18.168 150.52 19.352 155.256 19.8 158.296 20.056 159.8 20.92 159.768 22.808 159.768 24.408 157.944 25.464 155.288 25.464 153.016 25.464 150.168 24.504 148.44 22.296L145.464 25.4C147.352 28.536 151.384 30.04 155.256 30.008 160.088 29.976 164.696 27.8 164.696 22.808 164.696 17.624 160.504 15.928 156.088 15.544 153.208 15.288 151.256 14.904 151.256 12.856 151.256 11.32 153.048 10.392 155.256 10.392 157.016 10.392 159.192 10.968 160.44 12.28L163.576 9.528ZM184.512 23.096C183.168 24.44 180.8 25.24 179.008 25.24 173.76 25.24 172 21.528 171.968 18.264 171.936 15 173.92 11.064 179.008 11.064 180.8 11.064 182.752 11.608 184.096 12.92L187.232 9.816C184.928 7.544 182.08 6.36 179.008 6.36 170.784 6.36 167.008 12.44 167.039798 18.232 167.072 24.344 170.464 29.848 179.008 29.848 182.336 29.848 185.312 28.824 187.616 26.552L184.512 23.096Z"/><polygon points="210.728 29.304 210.728 6.904 205.8 6.904 205.8 15.864 195.784 15.864 195.784 6.904 190.792 6.904 190.792 29.304 195.784 29.304 195.784 20.44 205.8 20.44 205.8 29.304"/><path d="M232.976 24.664 220.816 24.664 220.816 20.152 231.856 20.152 231.856 15.768 220.816 15.768 220.816 11.448 232.528 11.448 232.528 6.872 215.92 6.872C215.92 14.328 215.92 21.816 215.92 29.272L232.976 29.272 232.976 24.664ZM253.08 23.096C251.736 24.44 249.368 25.24 247.576 25.24 242.328 25.24 240.568 21.528 240.536 18.264 240.504 15 242.488 11.064 247.576 11.064 249.368 11.064 251.32 11.608 252.664 12.92L255.8 9.816C253.496 7.544 250.648 6.36 247.576 6.36 239.352 6.36 235.576 12.44 235.607798 18.232 235.64 24.344 239.032 29.848 247.576 29.848 250.904 29.848 253.88 28.824 256.184 26.552L253.08 23.096Z"/><polygon points="277.856 6.872 271.808 6.872 264.352 16.12 264.352 6.872 259.36 6.872 259.36 29.272 264.352 29.272 264.352 19.704 272.64 29.272 278.656 29.272 278.656 28.984 268.768 17.752 277.856 7"/></g></g></svg>